<svg width="48" height="48" viewBox="0 0 48 48" fill="none" xmlns="http://www.w3.org/2000/svg">
<path d="M24.0001 2.39999C24.0001 1.07451 25.0773 -0.0124471 26.3961 0.119881C30.2963 0.5112 34.0544 1.85352 37.3337 4.04472C41.2805 6.68187 44.3567 10.4302 46.1732 14.8156C47.9897 19.201 48.4649 24.0266 47.5389 28.6822C46.6129 33.3377 44.3271 37.6141 40.9706 40.9706C37.6142 44.327 33.3378 46.6128 28.6822 47.5388C24.0267 48.4649 19.2011 47.9896 14.8156 46.1731C10.4302 44.3566 6.68193 41.2805 4.04478 37.3337C1.85358 34.0543 0.511261 30.2962 0.119942 26.3961C-0.0123847 25.0772 1.07457 24 2.40005 24C3.72553 24 4.78459 25.0787 4.94985 26.3938C5.32043 29.343 6.37236 32.1774 8.03583 34.6669C10.1456 37.8244 13.1442 40.2853 16.6525 41.7385C20.1609 43.1917 24.0213 43.5719 27.7458 42.8311C31.4702 42.0902 34.8913 40.2616 37.5765 37.5764C40.2617 34.8913 42.0903 31.4702 42.8311 27.7457C43.572 24.0213 43.1917 20.1608 41.7385 16.6525C40.2853 13.1441 37.8244 10.1455 34.667 8.03577C32.1774 6.3723 29.343 5.32037 26.3939 4.94979C25.0787 4.78453 24.0001 3.72547 24.0001 2.39999Z" fill="#00BDD3"/>
</svg>
